<?xml version="1.0" encoding="utf-8"?>
<!-- Generator: Adobe Illustrator 21.0.2, SVG Export Plug-In . SVG Version: 6.00 Build 0)  -->
<svg version="1.1" xmlns="http://www.w3.org/2000/svg" xmlns:xlink="http://www.w3.org/1999/xlink" x="0px" y="0px"
	 viewBox="0 0 411.3 45.1" style="enable-background:new 0 0 411.3 45.1;" xml:space="preserve">
<style type="text/css">
	.st0{display:none;}
	.st1{display:inline;}
	.st2{fill:#EE5951;}
</style>
<g id="Untitled-1_xA0_Image_1_" class="st0">
	<g class="st1">
		<path class="st2" d="M28.9,19.5c3,0.1,6,0.1,9,0c0.4,0,0.7,0,1.1,0c1.6,0.1,3.3,0.1,4.9,0.1c2.4,0,4.9,0.1,7.3,0
			c2.6-0.1,5.2,0.1,7.8-0.3c0.4-0.1,0.8-0.1,1.2-0.1c3.8,0.1,7.5-0.4,11.2-0.8c2.1-0.2,4.2-0.4,6.3-0.5c1.7-0.1,3.1,1.7,3,3.4
			c-0.1,1.2-1,1.8-2.2,1.6c-2.7-0.6-5.5-0.5-8.3-0.2c-1.1,0.1-2.2,0.2-3.3,0.2c-3.3,0.2-6.7,0.3-10,0.4c-2.8,0.1-5.5,0-8.3,0
			c-1.9,0-3.8,0-5.7,0c-2.1,0-4.3,0-6.4-0.1c-2.1-0.1-4.3,0-6.4-0.1c-2,0-4-0.1-5.9-0.2c-1.2-0.1-2.4-0.1-3.6-0.1
			c-0.2,0-0.3,0-0.4,0.2c-0.1,0.2,0,0.3,0.2,0.4c1,0.8,2,1.7,3,2.4c1,0.8,2,1.5,3.1,2.1c1.3,0.7,2,1.8,2,3.3c0,0.8-0.3,1.4-0.9,1.8
			c-0.5,0.3-1.1,0.5-1.6,0c-1.5-1.4-3.5-2.2-5.3-3.2c-2.6-1.5-5.3-3-7.9-4.5c-1.5-0.9-3-1.7-4.6-2.5c-0.5-0.3-1.1-0.4-1.6-0.5
			C4.1,21.8,3.9,19.8,5,18c0.4-0.6,1-0.9,1.8-0.8c0.1,0,0.2,0,0.4,0.1c1.6,0.7,3,0.3,4.3-0.5c1.2-0.7,2.4-1.4,3.5-2.3
			c1.2-0.9,2.5-1.8,3.7-2.7c0.9-0.7,1.7-1.5,2.4-2.3c0.9-1,1.9-1.8,2.8-2.8c0.5-0.5,1.1-0.8,1.8-0.4c0.7,0.3,1,0.9,1.1,1.7
			c0.1,1.1-0.4,1.9-1.2,2.5c-1.9,1.5-3.6,3.3-5.4,4.9c-0.8,0.6-1.5,1.3-2.3,1.9c-0.3,0.3-0.7,0.5-0.6,1c0.1,0.5,0.7,0.6,1.1,0.6
			c0.8,0.1,1.6,0.2,2.3,0.2C23.6,19.2,26.2,19.4,28.9,19.5z"/>
		<path class="st2" d="M109.3,33.8c-1.5-0.2-2.8-0.2-4-0.8c-1.5-0.8-2.5-1.9-3-3.5c-0.4-1.2-0.9-2.4-1-3.7c0-0.6-0.3-1.1-0.8-1.4
			c-1.2-0.7-1.2-2.8-0.1-3.7c0.6-0.5,1-1,1.3-1.8c0.5-1.8,0.9-3.6,1.7-5.3c0.2-0.5,0.2-1-0.1-1.5c-0.8-1.3-0.5-2.4,0.8-3.2
			c0.6-0.4,0.9-0.8,1.1-1.4c0.8-2.8,2.9-2.9,4.7-1.5c0.9,0.7,1.8,0.7,2.8,0.5c1.3-0.3,2.6-0.7,4-1c1.7-0.4,3.4-0.4,5.2-0.2
			c0.8,0.1,1.5,0.6,2,1.1c0.5,0.5,0.1,1.5-0.8,1.7c-1,0.2-2,0.5-3,0.8c-2,0.6-4.1,1-6.1,1.6c-1.3,0.4-2.4,1-3.7,1.3
			c-1,0.3-1.5,0.9-1.9,1.8c-0.7,1.8-1.4,3.7-1.9,5.6c0,0.1-0.1,0.2-0.1,0.4c-0.1,0.8,0.2,1.1,0.9,1.1c1.1-0.1,2.2-0.3,3.3-0.7
			c1-0.3,2-0.5,2.9-1c0.6-0.3,1.3-0.1,1.9,0.2c0.9,0.4,1.1,1.6,0.4,2.4c-0.3,0.4-0.7,0.8-1.1,0.9c-1.7,0.7-3.3,1.5-5.1,1.9
			c-0.9,0.2-1.7,0.6-2.6,0.7c-0.5,0.1-0.8,0.5-0.7,1c0.1,1.4,1.6,3.1,3,3.5c0.8,0.2,1.6-0.1,2.3-0.4c2-0.8,4-1.5,5.7-2.9
			c0.5-0.4,1-0.8,1.3-1.3c0.4-0.5,0.9-0.6,1.4-0.6c0.2,0,0.3,0,0.5,0.1c0.9,0.5,1.2,1.9,0.8,2.9c-0.6,1.4-1.7,2.4-2.9,3.1
			c-2.4,1.5-5.1,2.6-7.9,3.2C110,33.8,109.6,33.8,109.3,33.8z"/>
		<path class="st2" d="M337.9,33.1c0.5-2,0.2-4.3,0.4-6.5c0.2-1.6,0.1-3.2,0.1-4.8c0-1,0.1-2,0.5-2.9c0.6-1.2,1.9-1.6,3.1-0.9
			c0.9,0.5,1.5,1.1,1.6,2.1c0.1,0.9,0.5,1,1.3,0.6c0.3-0.2,0.5-0.4,0.8-0.6c2.2-1.6,5.1-1.6,6.9,1.3c0.8,1.4,0.8,1.3,2.1,0.3
			c1.4-1.2,2.9-2.3,4.7-2.9c0.9-0.3,1.8-0.3,2.7-0.2c3,0.3,4.4,2.2,5.4,4.7c1.1,2.8,1.5,5.7,2.2,8.6c0.1,0.3,0.1,0.6,0.2,0.9
			c0.2,1,0.1,1.9-0.8,2.4c-0.9,0.5-1.9,0.5-2.8-0.1c-0.8-0.5-1.1-1.4-1.2-2.4c-0.3-2.6-1.1-5-1.7-7.4c-0.2-0.6-0.4-1.2-0.8-1.7
			c-0.7-0.8-1.4-1-2.3-0.6c-0.3,0.1-0.7,0.3-1,0.6c-1.7,1.5-3.2,3.2-4.1,5.3c-0.2,0.6-0.3,1.2-0.5,1.8c-0.4,1.2-1.5,1.8-2.7,1.5
			c-0.5-0.1-1-0.1-1.4-0.3c-0.8-0.5-1.3-1.6-1-2.6c0.6-1.8-0.1-3.3-0.6-4.9c-0.2-0.7-0.7-0.7-1.3-0.1c-1.7,1.6-2.9,3.6-3.6,5.8
			c-0.4,1.3-0.8,2.7-1,4.1c-0.1,0.9-0.9,1.5-2.1,1.6C339.1,36,337.8,35.1,337.9,33.1z"/>
		<path class="st2" d="M228,11.5c3.7,0,6,2,7.7,5c1.3,2.3,1.1,4.6,0.6,7c-0.4,1.8-0.7,3.6-1.3,5.3c-0.2,0.6-0.3,1.3-0.3,2
			c0,0.7-0.3,1.4-0.9,1.8c-0.4,0.3-0.6,0.7-0.8,1.1c-0.4,0.9-1,1.6-1.6,2.4c-0.8,1.1-2.1,1.4-3.4,1.6c-0.4,0.1-0.7-0.2-0.8-0.7
			c-0.2-0.8,0-1.5,0.2-2.2c0.3-1,0.3-1-0.7-1.2c-2-0.3-3.7-1.3-5.2-2.6c-1.1-0.9-2-2-2.4-3.4c-0.9-2.6,0.2-4.4,2.4-5.4
			c1.9-0.9,4-1.7,6.3-1.5c0.7,0.1,1.4,0.3,2,0.6c0.6,0.4,0.8,0.9,0.7,1.6c0,0.6-0.4,0.9-1,1.1c-1.2,0.4-2.5,0.6-3.6,1.2
			c-1.7,0.8-1.7,1.4-0.4,2.8c0.8,0.8,1.7,1.2,2.7,1.6c0.8,0.3,1.2,0.1,1.5-0.6c0.8-2.5,1.7-5,2-7.6c0.1-1.3,0.1-2.6-0.7-3.8
			c-0.3-0.4-0.6-0.8-1.1-1c-0.7-0.4-1.4-0.6-2.2,0c-1.1,0.8-2.4,0.6-3.7,0.5c-0.9-0.1-1.6-0.6-1.8-1.5c-0.1-0.9-0.1-1.8,0.7-2.5
			C224.3,12,225.9,11.5,228,11.5z"/>
		<path class="st2" d="M193.2,37.2c-3.2-0.1-5.3-1.9-6.9-4.4c-1.3-2-2-4.2-2.3-6.5c-0.1-0.9-0.5-1.4-1.4-1.7
			c-1.4-0.5-1.9-1.8-1.4-3.2c0.3-0.9,1-1.3,1.9-1.4c0.7,0,1-0.4,1.1-1.1c0.6-3,1.6-6,1.9-9.1c0.1-1,0.5-1.9,1.6-2.2
			c1.1-0.3,2.3-0.1,3.1,0.7c0.5,0.5,0.6,1.3,0.5,2c-0.2,1.2-0.4,2.4-0.8,3.5c-0.6,1.7-1,3.5-1.4,5.3c-0.3,1.1,0.1,1.4,1.2,1.2
			c1.4-0.3,2.7-0.6,4-1.1c1.3-0.5,2.6-1.1,4-0.8c0.3,0.1,0.7-0.2,0.8,0.3c0.1,0.5,0.6,0.9,0.1,1.4c-0.5,0.6-1,1.2-1.7,1.6
			c-1.9,1.2-4,2.1-6.3,2.5c-0.3,0.1-0.6,0.2-1,0.3c-1.8,0.5-1.8,0.6-1.3,2.4c0.4,1.6,1.2,3,2.1,4.3c0.3,0.4,0.7,0.7,1.1,1
			c1.4,1,2.4,0.9,3.7-0.2c1.3-1.1,2.2-2.5,3-3.9c0.3-0.4,0.6-0.7,1-0.9c0.5-0.3,1-0.1,1.1,0.5c0.1,0.5,0.3,1,0.5,1.5
			c0.3,0.5,0,1.1-0.2,1.7c-0.7,1.8-1.6,3.6-3.2,4.9c-0.5,0.4-1,0.8-1.7,0.9C195.3,36.9,194.3,37.3,193.2,37.2z"/>
		<path class="st2" d="M161.9,11.7c0,0.7-0.2,2,0.1,3.3c0.1,0.6,0.1,1.2,0,1.8c-0.2,0.7-0.2,1.5-0.2,2.2c0,2.3-0.3,4.6-0.3,6.9
			c0,1.5-0.2,3-0.6,4.5c-0.3,1.2-1.1,1.8-2.2,2.2c-0.8,0.3-2.3-0.1-2.8-1.3c-0.3-0.6-0.7-0.7-1.3-0.5c-0.6,0.2-1.3,0.3-1.9,0.4
			c-1.7,0.2-3.2-0.5-4.5-1.3c-1-0.6-1.4-1.8-1.6-2.9c-0.3-1.5,0.2-2.9,0.6-4.4c0.6-1.7,1.7-3,2.8-4.3c1.5-1.9,3.4-3.5,5.7-4.4
			c1.3-0.6,1.4-0.7,1.3-2.2c0-1-0.2-1.9-0.5-2.8c-0.2-0.9-0.1-1.7,0.1-2.6c0.2-0.5,0.4-0.8,0.9-1c1.9-1,4,0,4.4,2.1
			C162.2,8.6,162,9.9,161.9,11.7z M153.3,27c1,0.1,1.8-0.2,2.7-0.4c0.5-0.1,0.8-0.5,0.8-1.1c0-1.2,0.2-2.4,0.2-3.6
			c0.1-1,0.1-2.1,0.1-3.1c0-0.6-0.3-0.7-0.8-0.5c-0.1,0.1-0.2,0.1-0.3,0.2c-2.2,1.6-3.7,3.8-4.7,6.3c-0.1,0.3-0.1,0.6,0.1,1
			C151.8,26.8,152.5,27.1,153.3,27z"/>
		<path class="st2" d="M287.8,30.6c0-0.9,0-1.9,0-2.8c0-0.6-0.2-0.9-0.8-0.8c-0.4,0-0.7,0-1.1,0c-0.9,0.1-1.7,0.1-2.6-0.3
			c-0.9-0.3-1.3-0.9-1.4-1.7c-0.1-0.9,0.3-1.7,1.1-2.2c0.6-0.3,1.2-0.5,1.9-0.6c0.7,0,1.3-0.1,2-0.2c0.9-0.1,1-0.1,1-1
			c0.1-1.6,0.1-3.1,0.1-4.7c0.1-2,0.3-3.9,1.2-5.8c0.7-1.5,1.8-2.5,3.2-3c3.7-1.4,6.9,0.8,7.8,4c0.4,1.4-0.3,2.9-1.5,3.4
			c-1.4,0.6-2.7-0.1-2.9-1.6c-0.1-0.3,0-0.7-0.1-1c-0.2-0.9-0.9-1.1-1.6-0.5c-0.3,0.3-0.5,0.6-0.7,1c-0.9,2.3-0.8,4.7-0.9,7.1
			c0,0.6,0.3,0.8,0.8,0.9c0.4,0.1,0.8,0.1,1.2,0c1.3-0.1,2.6-0.2,3.9-0.3c0.7-0.1,1.4,0.1,2,0.4c0.7,0.3,1,0.7,1,1.4
			c0,0.5-0.2,0.8-0.6,1.1c-0.9,0.4-1.8,0.8-2.8,0.9c-1.6,0.2-3.2,0.5-4.8,1.1c-0.6,0.3-0.9,0.6-0.9,1.3c0.1,2.1,0.2,4.3,0.3,6.4
			c0,0.5,0,1.1,0,1.6c0,1-0.4,1.5-1.4,1.7c-0.5,0.1-0.9,0.5-1.5,0.3c-0.9-0.3-1.3-0.7-1.4-1.8C288.1,33.5,288,32,287.8,30.6
			C287.9,30.6,287.8,30.6,287.8,30.6z"/>
		<path class="st2" d="M145.4,26.5c0,1.7-0.4,3.2-1.4,4.5c-0.7,0.9-2.7,1.4-3.5,0.8c-0.6-0.4-0.9-1-0.7-1.7c0.1-0.5,0.2-1,0.4-1.4
			c1.1-1.8,0.7-3.7-0.2-5.4c-0.7-1.4-1.8-2.5-3.1-3.3c-1-0.6-1.4-0.5-2.2,0.3c-2.1,2.4-3.4,5.2-3.7,8.5c-0.1,0.6-0.1,1.2-0.2,1.9
			c-0.2,1.1-0.7,1.7-1.8,1.9c-2.9,0.5-3.9-1.6-3.4-3.7c0.7-2.8,0.2-5.5-0.5-8.2c-0.2-0.9-0.5-1.7-0.8-2.6c-0.5-1.5,0.1-2.4,1.2-3.1
			c1-0.6,2.5-0.3,3.3,0.8c0.4,0.5,0.7,1,0.9,1.6c0.2,0.8,0.5,0.8,1.1,0.3c0.6-0.5,1.3-1.1,1.9-1.6c1.5-1.1,3.1-1.2,4.7-0.5
			c3.5,1.5,6,4.1,7.4,7.6C145.3,24.2,145.4,25.4,145.4,26.5z"/>
		<path class="st2" d="M269.1,34.9c-2.5,0.1-4.6-0.7-6.2-2.3c-1.3-1.3-2.1-3-1.9-4.9c0.1-1.6,1.1-2.6,2.6-2.5
			c1.1,0.1,2.2,1.2,2.4,2.3c0.2,0.9,0.3,1.8,1.1,2.4c1.5,1.1,4.2,1.4,5.6,0.1c0.8-0.7,0.8-1.4,0.1-2.3c-1.1-1.2-2.5-1.9-3.9-2.6
			c-1-0.5-1.9-1-2.7-1.7c-1.2-1-1.5-2.3-1.3-3.8c0.4-2.4,2-3.8,4.2-4.6c2.6-1,5.3-0.5,7.9,0.2c0.6,0.2,1.1,0.5,1.6,1
			c0.7,0.7,0.4,1.5-0.5,1.9c-0.9,0.4-1.7,0.5-2.6,0.5c-1.2,0-2.5,0.1-3.7,0.4c-0.4,0.1-0.8,0.3-1,0.6c-0.8,0.8-0.8,1.7,0.2,2.3
			c0.9,0.5,1.8,1.2,2.7,1.7c1.3,0.7,2.5,1.6,3.5,2.7c1.7,1.8,1.5,3.3,0.3,5.2c-1.3,2.2-3.6,3-5.9,3.4
			C270.7,34.9,269.8,35.1,269.1,34.9z"/>
		<path class="st2" d="M246.7,31.1c0.2,0.7-0.1,1.5-0.2,2.4c-0.2,1.9-2,2.4-3.4,2.1c-1.5-0.3-2.2-1.5-2-3.1c0.3-1.9,0.1-3.8-0.2-5.8
			c-0.1-0.9-0.1-1.9-0.4-2.8c-0.2-0.9,0.1-1.8,0.7-2.5c0.4-0.5,1.1-0.6,1.7-0.5c0.8,0.2,1.3-0.1,1.9-0.6c0.5-0.5,1-1,1.5-1.5
			c1.1-0.9,2.4-1.4,3.7-1.9c1.8-0.7,3.3-0.1,4.8,0.8c2.2,1.2,3,3.4,3.6,5.5c0.6,1.9,0.6,3.8,0.6,5.8c0,1.5-0.4,2.9-1.5,4
			c-0.8,0.9-1.8,0.9-2.8,1.2c-0.5,0.1-0.7-0.3-0.9-0.7c-0.3-0.9-0.4-1.8-0.1-2.7c0.8-2.6,0.3-5.2-0.3-7.8c-0.1-0.3-0.2-0.6-0.4-0.9
			c-0.8-1.4-1.5-1.5-2.7-0.5c-2.1,1.7-3.1,4-3.5,6.6C246.8,29.1,246.6,30,246.7,31.1z"/>
		<path class="st2" d="M307.9,19.2c3,0.1,5.1,1.2,6.9,2.6c0.2,0.2,0.4,0.4,0.7,0.6c1.9,1.2,2.3,2.5,1.8,4.6
			c-0.4,2.2-1.9,3.6-3.3,5.1c-0.9,1-1.9,1.7-3.1,2.3c-2,1-4,1-6,0.3c-1.7-0.6-2.6-2-3-3.7c-0.4-1.4,0-2.9,0.2-4.3
			c0.1-0.9,0.2-1.9,0.6-2.8c0.5-1.3,1.4-2.5,2.5-3.4C306.2,19.7,307.2,19.1,307.9,19.2z M312.7,26.5c0-1.5-0.9-2-1.8-2.5
			c-0.7-0.4-0.8-0.3-1.1,0.4c-0.2,0.6-0.5,1.1-1,1.3c-1.3,0.8-1.7,2.1-2,3.4c-0.1,0.6,0.1,1.2,0.6,1.5c0.5,0.3,1,0.2,1.5-0.1
			c0.9-0.5,1.7-1.1,2.3-1.8C312,28,312.9,27.4,312.7,26.5z"/>
		<path class="st2" d="M210.7,32.7c0.1,2-0.5,2.7-2,3.1c-1.2,0.3-2.3-0.3-2.8-1.4c-0.3-0.6-0.5-1.3-0.4-2c0-0.3,0-0.6-0.1-0.9
			c-0.2-1.8-0.3-3.7-0.5-5.5c-0.2-2.2-0.3-4.4-1.1-6.5c-0.4-1-0.1-2,0.3-2.9c0.4-0.9,1.3-1.2,2.3-1c0.6,0.2,1.3,0.6,1.9,0.5
			c0.5-0.1,1-0.7,1.4-1.1c1.6-1.4,3.6-1.6,5.5-1.9c0.8-0.2,1.7-0.2,2.6-0.2c1.3,0,2.4,0.5,3.1,1.7c0.3,0.4,0.2,0.7-0.1,0.9
			c-0.8,0.6-1.7,1.1-2.7,1.2c-0.9,0.1-1.8,0.4-2.7,0.6c-2.9,0.6-4.1,2.7-4.8,5.2c-0.6,2.2-0.6,4.4-0.2,6.6
			C210.6,30.3,210.9,31.6,210.7,32.7z"/>
		<path class="st2" d="M325.2,34.6c-1.3-0.1-2.4-0.6-2.8-2c-0.3-1.2-0.5-2.4-0.5-3.7c-0.1-2.6-0.9-4.9-1.9-7.2
			c-0.4-0.9-0.8-1.7-0.5-2.7c0.5-1.7,2.3-2.3,3.7-1.3c0.8,0.6,1,0.6,1.6,0.1c1.6-1.6,3.6-2.3,5.6-2.9c1.6-0.5,3.1-0.9,4.8-0.9
			c1.5,0,2.8,0.3,3.9,1.4c0.9,0.8,0.7,1.8-0.5,2.1c-1.3,0.3-2.6,0.6-3.9,0.8c-1.5,0.2-3,0.7-4.3,1.4c-1.4,0.7-2.4,1.8-3,3.3
			c-0.7,1.8-0.9,3.6-0.3,5.6c0.4,1.3,0.3,2.8,0.6,4.2c0.2,0.6-0.3,1.1-0.8,1.4C326.4,34.4,325.8,34.6,325.2,34.6z"/>
	</g>
</g>
<g id="Layer_2">
	<g>
		<path class="st2" d="M51.5,22.7c-6.1-0.1-11.8-0.1-17.4,0.1c-2.5,0.1-5.1,0-7.6,0.1c-2.7,0.1-5.4,0.4-8.1,0.5
			c-0.2,0-0.4,0.1-0.6,0.1c-0.4,0.2-0.4,0.5-0.1,0.8c0.3,0.2,0.6,0.4,0.9,0.5c1.5,0.8,3,1.5,4.5,2.4c0.9,0.5,1.9,0.8,2.8,1.1
			c1.4,0.4,2.3,2.2,1.8,3.6c-0.2,0.8-1.2,1.3-2,0.9c-1.7-0.7-3.2-1.7-4.8-2.6c-1.6-0.9-3.3-1.6-4.9-2.3c-0.9-0.4-1.8-0.9-2.8-1.2
			c-1.7-0.5-3.4-0.8-5.2-0.8c-0.9,0-1.5-0.6-2.1-1.1c-0.7-0.5-1.2-1.2-1.4-2c-0.3-1.4,0.1-2.4,1.5-3.2c1.7-0.9,3.4-1.8,5.1-2.7
			c2.5-1.3,5-2.4,7.5-3.8c1.5-0.8,2.7-2.1,4.2-2.9c0.4-0.2,0.8-0.6,1.4-0.5c0.4,0,0.7,0.2,1,0.5c1,1,0.9,3.1-0.1,4
			c-1.2,1.1-2.7,1.8-4.1,2.6c-1,0.6-2.1,1-3.1,1.7c-0.2,0.2-0.6,0.3-0.5,0.6c0.1,0.4,0.5,0.4,0.8,0.3c3.3,0,6.6-0.1,9.9-0.1
			c3.9,0,7.8-0.2,11.7-0.3c3.8-0.1,7.6-0.1,11.4-0.2c3-0.1,6-0.1,9-0.2c2.4-0.1,4.7-0.3,7.1-0.3c3.1,0,6.2-0.3,9.3-0.3
			c1.7,0,2.7,1.8,2.7,3.1c0,1-1,1.8-2,1.6c-1.1-0.2-2.3,0-3.4,0c-5.1,0-10.2,0.1-15.4,0C55.9,22.6,53.5,22.6,51.5,22.7z"/>
		<path class="st2" d="M340.3,37.2c-4.3,0.1-7.1-2.7-8.3-6.1c-0.4-1.2-0.7-2.4-0.8-3.7c0-0.6-0.3-0.9-0.9-0.7
			c-1.5,0.5-2.9,0.9-4.4,1.4c-0.6,0.2-0.9,0.6-0.9,1.2c-0.1,0.7,0.1,1.4,0.2,2c0.4,2.5,0.9,5,1.3,7.5c0.2,1.3-0.1,2.1-1,2.4
			c-1.7,0.6-2.7,0.4-3.4-0.9c-0.3-0.6-0.5-1.1-0.7-1.8c-0.5-2.5-1-5-1-7.5c0-0.8-0.3-1-1.1-1c-0.8,0.1-1.6,0.1-2.4,0.1
			c-0.8,0-1.4-0.5-2-0.9c-0.7-0.5-0.6-1.2-0.4-2c0.2-0.9,0.7-1.6,1.6-1.7c0.8-0.1,1.6-0.4,2.5-0.4c1.4,0,1.6-0.2,1.7-1.6
			c0.2-2.7,0.4-5.4,1.1-8c0.7-2.8,1.8-5.5,4.1-7.3c2.8-2.2,5.9-3.2,9.5-2.1c1.8,0.6,2.9,1.9,3.9,3.3c0.3,0.4,0.4,1-0.1,1.4
			c-0.5,0.5-1.1,0.8-1.8,0.6c-0.6-0.1-1.2-0.4-1.6-0.9c-0.6-0.7-1.4-0.9-2.3-0.8c-1.1,0.1-2.1,0.4-3,1c-2.3,1.4-3.6,3.4-4.1,6
			c-0.2,1.2-0.4,2.5-0.7,3.7c-0.2,0.9,0.1,1.7,0.1,2.5c0,0.5,0.4,0.5,0.9,0.4c1-0.2,1.9-0.3,2.9-0.5c0.9-0.2,1.8-0.2,2.6,0.3
			c0.8,0.5,1.4,0.4,2.1-0.2c1.2-1,2.6-1.6,3.9-2.4c1.6-1,3.4-0.9,5.1-0.3c2.5,0.9,4.6,2.4,5.9,4.8c0.9,1.8,1.1,3.6,0.5,5.5
			c-1.1,3.3-3.5,5.2-6.8,6c-0.5,0.1-0.9,0.2-1.4,0.3C340.6,37.2,340.3,37.2,340.3,37.2z M344.8,28.5c-0.1-1.8-0.9-3.4-3-4.1
			c-0.8-0.3-1.6-0.2-2.3,0.3c-0.7,0.5-1.4,1.1-2.2,1.5c-0.6,0.3-1.1,1-1,1.8c0.2,1.6,0.9,3.1,2.1,4.2c0.6,0.5,1.3,0.8,2.1,0.7
			C342.3,32.7,344.8,31.1,344.8,28.5z"/>
		<path class="st2" d="M378,35.8c0,0.3-0.1,0.6-0.1,0.9c-0.1,1.5-1.2,2.4-2.6,2.1c-0.4-0.1-0.7-0.2-1.1-0.3c-1-0.4-1.6-1.1-1.6-2.2
			c0.1-1.6-0.3-3.1-0.3-4.7c-0.1-1.9,0-3.9,0-5.8c0-0.3,0-0.7-0.1-1c-0.2-1.7,0.9-2.8,2.6-2.6c0.5,0,1,0.2,1.5,0.4
			c0.7,0.4,1.3,0.3,1.9-0.3c0.4-0.4,0.8-0.8,1.4-1.1c2.3-1.1,4.2-0.6,5.8,1.3c0.6,0.8,1.2,1.6,1.6,2.6c0.6,1.3,0.8,1.3,1.8,0.4
			c1.2-1.1,2.3-2.2,3.6-3.2c1-0.7,2.2-1.3,3.4-1.6c1.2-0.4,2.3-0.1,3.3,0.5c1.2,0.8,2.2,1.8,2.6,3.2c0.8,2.4,1.8,4.6,2.7,7
			c0.5,1.4,0.9,2.9,0.9,4.5c0,1.9-1.2,3.1-3,3.2c-0.7,0-1-0.3-1.2-0.9c-0.2-0.7-0.2-1.4-0.2-2.1c0-0.6-0.1-1.2-0.3-1.7
			c-0.5-1.5-1-3-1.6-4.5c-0.4-1.1-0.8-2.2-1.3-3.3c-0.6-1.2-1.2-1.4-2.3-0.7c-1.5,1-2.9,2.3-3.9,3.7c-1,1.4-1.9,2.9-2.1,4.7
			c0,0.4-0.3,0.8-0.4,1.2c-0.3,0.7-0.8,1-1.5,1c-1.5,0.2-3.1-1.1-3.1-2.7c0-2.5-0.7-4.8-1.5-7c-0.4-1.1-1.3-1.3-2-0.4
			c-1.1,1.5-2.1,3.2-2.4,5.1C378.2,32.9,377.8,34.3,378,35.8z"/>
		<path class="st2" d="M263.2,11.6c3.1,0.2,5.6,1.6,7.1,4.7c1,2.1,1.6,4.2,1.8,6.4c0.1,1.4-0.2,2.9-0.3,4.3
			c-0.1,0.8-0.3,1.5-0.3,2.3c0,0.4-0.1,0.8-0.3,1.1c-0.8,1.3-1,2.7-1.3,4.1c-0.4,1.7-2.3,3.1-4.5,2.3c-0.6-0.2-1-0.8-1.2-1.5
			c-0.3-1.1-0.3-1.1-1.5-0.9c-2.2,0.4-4.4,0.4-6.5-0.7c-2.4-1.3-2.8-3.8-1.2-6c1.4-1.9,3.2-3.5,5-5c1.2-1,2.4-1.9,3.6-2.8
			c0.6-0.4,1.3-0.6,2-0.8c0.6-0.2,0.7-0.5,0.5-1c-0.3-0.7-0.8-1.2-1.4-1.6c-0.7-0.4-1.4-0.4-2.1,0.2c-0.7,0.6-1.4,1.3-1.7,2.2
			c-0.2,0.6-0.6,1.1-1.1,1.6c-1,0.8-2.1,0.9-3.2,0.6c-1.4-0.5-1.9-1.8-1.3-3.2c1.1-2.2,2.7-3.9,4.7-5.2
			C260.9,12,261.9,11.6,263.2,11.6z M261.3,30.4c0.3,0,0.5,0,0.6,0c1.3-0.1,2.5-0.8,3.8-1c0.4-0.1,0.6-0.4,0.7-0.8
			c0.4-1.3,0.9-2.7,0.9-4.1c0-0.9-0.3-1-1.1-0.7c-0.2,0.1-0.4,0.2-0.6,0.3c-1.8,1.3-3.4,2.7-5,4.2c-0.4,0.4-1.1,0.9-0.9,1.6
			C260,30.6,260.8,30.2,261.3,30.4z"/>
		<path class="st2" d="M223.2,35.9c-0.6-0.1-1.1-0.2-1.7-0.2c-3.3-0.4-4.9-2.5-5.8-5.5c-0.3-1.1-0.4-2.3-0.4-3.4
			c0-0.4-0.1-0.8-0.1-1.1c-0.1-0.5-0.3-0.8-0.8-0.8c-0.4,0-0.8-0.1-1.1-0.3c-0.9-0.3-1.4-1.2-1.4-2.1c0-0.9,0.5-1.6,1.5-1.9
			c0.2-0.1,0.5-0.3,0.7-0.3c1.4,0,1.6-0.9,1.8-2c0.3-2.5,0.7-4.9,0.7-7.4c0-1.1,0.7-1.9,1.9-2c2.7-0.4,4.4,1.5,3.6,4.1
			c-0.4,1.3-0.6,2.5-0.9,3.8c-0.2,1,0.2,1.3,1.2,0.9c1.1-0.4,2.2-0.9,3.3-1.3c1-0.3,1.9-0.2,2.9,0.1c0.6,0.2,0.7,1.1,0.4,1.8
			c-0.3,0.5-0.8,0.8-1.3,1.2c-1.9,1.3-3.9,2.5-5.9,3.5c-1.2,0.6-1.6,1.5-1.4,2.8c0.1,1.2,0.3,2.4,0.8,3.6c0.7,1.6,2.4,3,4.8,1.8
			c1.7-0.9,3.2-1.9,4.6-3.1c0.3-0.2,0.6-0.4,1-0.6c0.6-0.2,1.1-0.2,1.5,0.2c0.3,0.3,0.4,1.5,0.2,1.9c-0.6,1.3-1.3,2.4-2.5,3.2
			c-1.1,0.8-2.1,1.8-3.5,2.3C225.8,35.6,224.5,35.8,223.2,35.9z"/>
		<path class="st2" d="M155.4,19.8c-0.2,4.4-1.3,8.2-2.6,12c-0.2,0.5-0.5,1-1.1,1.2c-0.5,0.2-1,0.5-1.5,0.6c-1.1,0.3-1.6,0-1.5-1.2
			c0-0.5,0.1-1.1,0.1-1.6c0-0.4-0.2-0.6-0.6-0.6c-0.4,0-0.8,0-1.1,0.1c-2.4,0.3-4.5-0.5-6.3-2c-1.5-1.3-1.9-3-1.7-4.8
			c0-0.6,0.4-1,0.8-1.4c0.8-0.7,1.7-1.1,2.5-1.7c2-1.4,4.3-2.1,6.7-2.5c0.4-0.1,1,0,1.1-0.4c0.2-0.6-0.2-1.2-0.6-1.6
			c-0.9-0.7-2-1.2-3.2-1.1c-1.3,0.1-2.5,0.7-3.5,1.6c-0.9,0.8-2,1.1-3.2,1.1c-0.9,0-1.4-0.4-1.7-1.2c-0.3-0.7-0.2-1.3,0.3-1.9
			c2.4-2.5,5.3-3.8,8.9-3.5c2.1,0.2,4,1.2,5.6,2.4c1.4,1.1,2.3,2.6,2.5,4.4C155.4,18.5,155.3,19.3,155.4,19.8z M150.4,23
			c0.1-1.2-0.1-1.5-1.2-1.4c-1.9,0.3-3.6,1.1-5.1,2.4c-0.5,0.4-0.4,0.7-0.1,1.3c0.6,1.1,4.1,2.1,5.2,1.9c0.3,0,0.5-0.2,0.5-0.5
			C149.8,25.4,150.4,24.1,150.4,23z"/>
		<path class="st2" d="M294.2,31.6c0,1.1,0.1,2.1-0.1,3.1c-0.4,1.8-2.6,2.5-4,1.4c-0.9-0.7-1-1.7-0.9-2.7c0.2-1.4,0.2-2.8,0-4.2
			c-0.2-2.1-0.8-4.1-1.4-6.2c-0.1-0.2-0.2-0.5-0.3-0.7c-0.4-0.6-0.8-0.7-1.4-0.3c-1.3,1-2.4,2.2-3.1,3.8c-0.9,2.2-1.2,4.5-1.4,6.8
			c0,0.4-0.1,0.8-0.1,1.1c-0.1,0.4-0.2,0.7-0.5,1c-0.7,1-2.8,0.9-3.9,0.4c-1-0.5-1.7-1.8-1.3-3c0.9-3.1,0.8-6.3,0.5-9.4
			c-0.1-1.1-0.2-2.2-0.4-3.3c-0.2-0.9,0.7-2.5,1.4-2.9c0.2-0.1,0.5-0.2,0.7-0.1c0.6,0.2,1.2,0.3,1.8,0.6c0.7,0.4,1.2,0.8,1.3,1.6
			c0.1,0.7,0.3,0.8,0.9,0.4c0.7-0.4,1.4-0.9,2.1-1.4c2.6-1.9,5.3-0.8,7,1.6c1.4,2,1.8,4.4,2.4,6.6C294.1,27.9,294.1,29.8,294.2,31.6
			z"/>
		<path class="st2" d="M114.8,7.2c1.1-0.1,2.3,0,3.4,0.4c0.3,0.1,0.7,0.2,0.7,0.6c0,0.4-0.3,0.6-0.6,0.7c-0.6,0.4-1.3,0.7-2,0.9
			c-2.7,0.8-5.4,1.6-8.1,2.4c-0.7,0.2-1.3,0.5-1.9,1c-1.1,0.8-1.2,1.9-0.2,2.9c0.4,0.4,1,0.7,1.5,0.9c1.7,0.8,3.6,1.4,5.2,2.4
			c1.2,0.8,2.5,1.6,3.6,2.6c2,1.9,2.3,4.2,1.4,6.6c-0.9,2.7-2.8,4.4-5.7,4.8c-4.4,0.7-8.2-0.5-11.1-3.8c-1.5-1.7-2.4-3.8-2.3-6.1
			c0-1.2,0.4-1.7,1.3-1.9c1.2-0.3,1.9,0.1,2.2,1.3c0.2,1,0.5,1.9,0.9,2.8c1.2,2.9,3.4,4.3,6.4,4.6c2,0.2,3.5-0.7,4.4-2.4
			c1-2,0.2-4.3-1.7-5.5c-2.2-1.5-4.7-2.2-7.1-3.4c-1.3-0.7-2.5-1.4-3.4-2.5c-0.9-1.1-1-2.2-0.5-3.5c1.1-2.5,3-3.9,5.6-4.4
			c1.5-0.3,2.9-0.6,4.3-0.9C112.2,7.4,113.5,7.1,114.8,7.2z"/>
		<path class="st2" d="M185.8,35.4c-2-0.3-4.1-0.3-5.7-1.9c-1.9-1.9-3.6-3.9-4-6.8c-0.1-0.7-0.4-1.3-1-1.8c-1.7-1.3-0.9-2.9,0.3-3.6
			c0.8-0.4,1.1-1,1.2-1.7c0.4-2.1,1.2-4.1,1.7-6.3c0.2-0.8,0.4-1.5,1.1-2.1c0.9-0.8,2.1-0.9,3.2-0.3c0.8,0.5,1.2,1.7,1,2.7
			c-0.5,1.6-0.9,3.2-1.4,4.7c-0.3,1-0.1,1.2,0.8,1c1.9-0.4,3.7-0.9,5.4-1.7c1.1-0.5,2.2-0.2,3.2,0c0.3,0,0.4,0.3,0.4,0.6
			c0,0.9-0.2,1.6-1,2c-1.5,0.8-2.9,1.7-4.6,2.2c-1.6,0.5-3.2,1.2-4.7,1.8c-0.5,0.2-0.8,0.6-0.7,1.2c0.1,1.5,0.9,2.7,1.6,3.9
			c0.2,0.4,0.5,0.7,0.8,1c1,1.1,2.3,1.5,3.7,1c2.1-0.6,4-1.5,5.5-3.2c0.5-0.6,1.2-0.6,1.9-0.4c0.4,0.1,0.8,1.4,0.6,2
			c-0.4,1.1-0.9,2.1-1.8,2.9C191.2,34.5,188.6,35.2,185.8,35.4z"/>
		<path class="st2" d="M305.1,37.1c-2.1,0.1-3.8-0.8-5.2-2.3c-0.8-0.9-1.3-1.9-1.6-3c-0.4-1.3,0.1-2.4,1.4-3.1
			c0.2-0.1,0.5-0.2,0.7-0.1c1.6,0.2,2.9,0.9,3.4,2.4c0.6,1.6,1.9,2.1,3.4,1.4c0.6-0.3,1.3-0.5,1.8-1.2c0.3-0.5,0.4-0.9,0-1.4
			c-1.2-1.5-2.5-2.9-4.2-3.8c-1.9-0.9-3.9-1.4-5.8-2.2c-1.4-0.6-1.9-1.5-1.7-2.9c0.3-2.1,1.9-3.1,3.5-3.9c1.7-0.9,3.6-1.4,5.6-1.6
			c1-0.1,2-0.4,2.9-0.8c1.3-0.5,2.4,0,3.4,0.6c1,0.7,1,2-0.2,2.6c-1.1,0.6-2.3,1.1-3.5,1.4c-1.6,0.3-3,1-4.6,1.5
			c-0.1,0-0.2,0.1-0.2,0.1c-0.3,0.1-0.6,0.3-0.6,0.6c-0.1,0.4,0.4,0.4,0.6,0.5c0.8,0.4,1.6,0.7,2.4,1.1c2.4,1.3,4.5,3,6.3,5.1
			c1.8,2.1,1.5,3.7-0.1,5.7C310.9,36.4,308.1,37.2,305.1,37.1z"/>
		<path class="st2" d="M131.2,33.4c-1.4,0-2.9-0.2-4.2-0.6c-1.1-0.4-1.9-1.2-2.5-2.1c-0.9-1.2-1.6-2.6-1.8-4.2
			c-0.1-0.9-0.5-1.5-1.2-2.1c-1.1-0.9-1-2.7,0.2-3.3c0.7-0.4,1-0.9,1.1-1.7c0.3-2,0.7-4,1.2-6c0.2-1,0.7-2,1.6-2.7
			c0.9-0.7,1.9-0.8,2.9-0.1c0.8,0.6,0.9,1.6,0.4,2.6c-0.7,1.8-1.2,3.7-1.4,5.6c-0.1,1.1,0.1,1.2,1.1,0.9c0.6-0.2,1.2-0.3,1.8-0.6
			c1-0.4,1.9-0.4,2.9-0.1c0.5,0.1,1,0.3,1.1,0.9c0,0.6-0.3,0.9-0.7,1.2c-1.6,1-3.3,1.9-5,2.6c-1.5,0.6-1.6,1-1,2.5
			c0.6,1.6,1.7,2.7,3.4,3c0.7,0.1,1.3,0.1,2-0.3c0.8-0.5,1.7-0.8,2.5-1.3c0.4-0.2,0.7-0.2,1.1-0.1c1.1,0.2,1.2,0.5,1,1.5
			c-0.5,1.9-1.9,2.8-3.6,3.4C133.1,33.2,132.2,33.5,131.2,33.4z"/>
		<path class="st2" d="M356.7,19.1c0.6,0.1,1.2,0.2,1.7,0.7c0.5,0.5,1,0.4,1.5,0.1c0.6-0.4,1.2-0.8,1.9-1.1c2.1-1.1,4.4-1.5,6.7-1.4
			c1.4,0.1,2.7,0.7,3.8,1.6c0.2,0.2,0.4,0.4,0.5,0.6c0.4,0.7,0.1,1.4-0.7,1.6c-1.3,0.3-2.7,0.5-4,0.5c-1.8,0-3.3,0.9-4.8,1.8
			c-0.8,0.5-1.3,1.3-1.6,2.2c-1,2.5-1.3,5.1-1,7.8c0.1,0.7,0,1.4,0,2.2c-0.1,1.3-1.1,2.2-2.4,2c-0.8-0.1-1.6-0.5-2.3-1.1
			c-0.5-0.5-0.8-1.2-0.7-2c0.4-4.2-0.1-8.3-0.8-12.4c-0.3-1.4,0.2-2.4,1.3-3C356,19.1,356.3,19.1,356.7,19.1z"/>
		<path class="st2" d="M235.6,27.2c0-0.8,0.1-1.6,0.6-2.3c0.5-0.6,0.6-1.4,0.5-2.2c-0.2-1.6-0.3-3.2-0.9-4.8
			c-0.8-1.9,0.8-3.5,2.8-3.2c1.4,0.2,2.3,0.9,2.7,2.3c0,0.2,0.1,0.3,0.2,0.5c0.2,0.5,0.5,0.7,1,0.4c0.8-0.6,1.8-0.9,2.7-1.3
			c1.5-0.8,3.2-1.3,4.9-1.4c1-0.1,1.7,0.4,2.5,0.8c0.5,0.3,0.3,1.3-0.2,1.7c-0.4,0.2-0.8,0.4-1.1,0.6c-1.8,0.9-3.7,1.7-5.4,2.8
			c-1.5,1-2.5,2.4-3.6,3.7c-0.3,0.4-0.4,0.9-0.4,1.5c0,2-0.1,4.1,0.4,6.1c0.2,1.2-0.2,1.8-1.4,2.2c-1.5,0.5-2.7,0-3.3-1.4
			c-0.3-0.7-0.6-1.4-0.5-2.2c0-0.4,0-0.9-0.4-1.1C235.7,29.1,235.6,28.1,235.6,27.2z"/>
		<path class="st2" d="M161.3,15.4c1.3,0,2.6,1,3,2.3c0.3,1.1,0.6,1.3,1.7,1c2.2-0.7,4.3-0.4,6.4,0.5c0.5,0.2,1.1,0.4,1,1.1
			c-0.1,0.6-0.5,1-1.2,1.1c-0.8,0.1-1.7,0.3-2.5,0.4c-3.2,0.4-4.7,2.6-5.1,5.3c-0.3,2-0.3,4-0.7,6c-0.3,1.4-1.4,2.1-2.3,2.8
			c-0.4,0.3-0.7,0-0.9-0.4c-0.3-0.6-0.5-1.2-0.6-1.8c-0.1-0.8-0.4-1.5-0.9-2.2c-0.6-0.8-0.8-1.8-0.5-2.8c0.2-0.9,0.4-1.8,0.7-2.7
			c0.2-0.5,0.2-1.2,0.2-1.8c0-2,0-4-0.4-5.9C159,16.8,160,15.4,161.3,15.4z"/>
	</g>
</g>
</svg>
